<svg width="270" height="76" viewBox="0 0 270 76" fill="none" xmlns="http://www.w3.org/2000/svg">
<path d="M18 0H20.6667V2.66667H18V0Z" fill="#5E2659"/>
<path d="M18 3.55556H20.6667V6.22224H18V3.55556Z" fill="#5E2659"/>
<path d="M21.5556 0H24.2223V2.66667H21.5556V0Z" fill="#5E2659"/>
<path d="M21.5556 3.55556H24.2223V6.22224H21.5556V3.55556Z" fill="#5E2659"/>
<path d="M25.1111 0H27.7778V2.66667H25.1111V0Z" fill="#5E2659"/>
<path d="M25.1111 3.55556H27.7778V6.22224H25.1111V3.55556Z" fill="#5E2659"/>
<path d="M28.6667 0H31.3334V2.66667H28.6667V0Z" fill="#5E2659"/>
<path d="M28.6667 3.55556H31.3334V6.22224H28.6667V3.55556Z" fill="#5E2659"/>
<path d="M32.2223 0H34.8889V2.66667H32.2223V0Z" fill="#5E2659"/>
<path d="M32.2223 3.55556H34.8889V6.22224H32.2223V3.55556Z" fill="#5E2659"/>
<path d="M35.7778 0H38.4445V2.66667H35.7778V0Z" fill="#5E2659"/>
<path d="M35.7778 3.55556H38.4445V6.22224H35.7778V3.55556Z" fill="#5E2659"/>
<path d="M25.1111 7.1111H27.7778V9.77776H25.1111V7.1111Z" fill="#58BED3"/>
<path d="M25.1111 10.6667H27.7778V13.3334H25.1111V10.6667Z" fill="#58BED3"/>
<path d="M28.6667 7.1111H31.3334V9.77776H28.6667V7.1111Z" fill="#58BED3"/>
<path d="M28.6667 10.6667H31.3334V13.3334H28.6667V10.6667Z" fill="#58BED3"/>
<path d="M25.1111 14.2223H27.7778V16.8889H25.1111V14.2223Z" fill="#CF6720"/>
<path d="M25.1111 17.7778H27.7778V20.4445H25.1111V17.7778Z" fill="#CF6720"/>
<path d="M28.6667 14.2223H31.3334V16.8889H28.6667V14.2223Z" fill="#CF6720"/>
<path d="M28.6667 17.7778H31.3334V20.4445H28.6667V17.7778Z" fill="#CF6720"/>
<path d="M25.1111 21.3334H27.7778V24H25.1111V21.3334Z" fill="#BC619F"/>
<path d="M25.1111 24.8889H27.7778V27.5556H25.1111V24.8889Z" fill="#BC619F"/>
<path d="M28.6667 21.3334H31.3334V24H28.6667V21.3334Z" fill="#BC619F"/>
<path d="M28.6667 24.8889H31.3334V27.5556H28.6667V24.8889Z" fill="#BC619F"/>
<path d="M42.8889 0H45.5555V2.66667H42.8889V0Z" fill="#5E2659"/>
<path d="M42.8889 3.55556H45.5555V6.22224H42.8889V3.55556Z" fill="#5E2659"/>
<path d="M46.4445 3.55556H49.1112V6.22224H46.4445V3.55556Z" fill="#5E2659"/>
<path d="M67.7778 3.55556H70.4445V6.22224H67.7778V3.55556Z" fill="#5E2659"/>
<path d="M71.3334 3.55556H74.0001V6.22224H71.3334V3.55556Z" fill="#5E2659"/>
<path d="M71.3334 0H74.0001V2.66667H71.3334V0Z" fill="#5E2659"/>
<path d="M46.4445 7.1111H49.1112V9.77776H46.4445V7.1111Z" fill="#58BED3"/>
<path d="M50.0001 7.1111H52.6668V9.77776H50.0001V7.1111Z" fill="#58BED3"/>
<path d="M50.0001 10.6667H52.6668V13.3334H50.0001V10.6667Z" fill="#58BED3"/>
<path d="M53.5556 10.6667H56.2223V13.3334H53.5556V10.6667Z" fill="#58BED3"/>
<path d="M60.6667 10.6667H63.3334V13.3334H60.6667V10.6667Z" fill="#58BED3"/>
<path d="M64.2223 10.6667H66.889V13.3334H64.2223V10.6667Z" fill="#58BED3"/>
<path d="M67.7778 10.6667H70.4445V13.3334H67.7778V10.6667Z" fill="#58BED3"/>
<path d="M67.7778 7.1111H70.4445V9.77776H67.7778V7.1111Z" fill="#58BED3"/>
<path d="M71.3334 10.6667H74.0001V13.3334H71.3334V10.6667Z" fill="#58BED3"/>
<path d="M71.3334 7.1111H74.0001V9.77776H71.3334V7.1111Z" fill="#58BED3"/>
<path d="M64.2223 7.1111H66.889V9.77776H64.2223V7.1111Z" fill="#58BED3"/>
<path d="M46.4445 10.6667H49.1112V13.3334H46.4445V10.6667Z" fill="#58BED3"/>
<path d="M42.8889 7.1111H45.5555V9.77776H42.8889V7.1111Z" fill="#58BED3"/>
<path d="M42.8889 10.6667H45.5555V13.3334H42.8889V10.6667Z" fill="#58BED3"/>
<path d="M53.5556 14.2223H56.2223V16.8889H53.5556V14.2223Z" fill="#CF6720"/>
<path d="M57.1112 14.2223H59.7779V16.8889H57.1112V14.2223Z" fill="#CF6720"/>
<path d="M60.6667 14.2223H63.3334V16.8889H60.6667V14.2223Z" fill="#CF6720"/>
<path d="M67.7778 14.2223H70.4445V16.8889H67.7778V14.2223Z" fill="#CF6720"/>
<path d="M67.7778 17.7778H70.4445V20.4445H67.7778V17.7778Z" fill="#CF6720"/>
<path d="M71.3334 14.2223H74.0001V16.8889H71.3334V14.2223Z" fill="#CF6720"/>
<path d="M71.3334 17.7778H74.0001V20.4445H71.3334V17.7778Z" fill="#CF6720"/>
<path d="M57.1112 17.7778H59.7779V20.4445H57.1112V17.7778Z" fill="#CF6720"/>
<path d="M46.4445 14.2223H49.1112V16.8889H46.4445V14.2223Z" fill="#CF6720"/>
<path d="M46.4445 17.7778H49.1112V20.4445H46.4445V17.7778Z" fill="#CF6720"/>
<path d="M42.8889 14.2223H45.5555V16.8889H42.8889V14.2223Z" fill="#CF6720"/>
<path d="M42.8889 17.7778H45.5555V20.4445H42.8889V17.7778Z" fill="#CF6720"/>
<path d="M67.7778 21.3334H70.4445V24H67.7778V21.3334Z" fill="#BC619F"/>
<path d="M67.7778 24.8889H70.4445V27.5556H67.7778V24.8889Z" fill="#BC619F"/>
<path d="M71.3334 21.3334H74.0001V24H71.3334V21.3334Z" fill="#BC619F"/>
<path d="M71.3334 24.8889H74.0001V27.5556H71.3334V24.8889Z" fill="#BC619F"/>
<path d="M46.4445 21.3334H49.1112V24H46.4445V21.3334Z" fill="#BC619F"/>
<path d="M46.4445 24.8889H49.1112V27.5556H46.4445V24.8889Z" fill="#BC619F"/>
<path d="M42.8889 21.3334H45.5555V24H42.8889V21.3334Z" fill="#BC619F"/>
<path d="M42.8889 24.8889H45.5555V27.5556H42.8889V24.8889Z" fill="#BC619F"/>
<path d="M78.4446 0H81.1112V2.66667H78.4446V0Z" fill="#5E2659"/>
<path d="M78.4446 3.55556H81.1112V6.22224H78.4446V3.55556Z" fill="#5E2659"/>
<path d="M82.0001 3.55556H84.6669V6.22224H82.0001V3.55556Z" fill="#5E2659"/>
<path d="M96.2226 3.55556H98.8888V6.22224H96.2226V3.55556Z" fill="#5E2659"/>
<path d="M96.2226 0H98.8888V2.66667H96.2226V0Z" fill="#5E2659"/>
<path d="M99.7777 3.55556H102.445V6.22224H99.7777V3.55556Z" fill="#5E2659"/>
<path d="M99.7777 0H102.445V2.66667H99.7777V0Z" fill="#5E2659"/>
<path d="M78.4446 7.1111H81.1112V9.77776H78.4446V7.1111Z" fill="#58BED3"/>
<path d="M78.4446 10.6667H81.1112V13.3334H78.4446V10.6667Z" fill="#58BED3"/>
<path d="M82.0001 7.1111H84.6669V9.77776H82.0001V7.1111Z" fill="#58BED3"/>
<path d="M82.0001 10.6667H84.6669V13.3334H82.0001V10.6667Z" fill="#58BED3"/>
<path d="M85.5558 7.1111H88.2226V9.77776H85.5558V7.1111Z" fill="#58BED3"/>
<path d="M85.5558 10.6667H88.2226V13.3334H85.5558V10.6667Z" fill="#58BED3"/>
<path d="M89.1109 10.6667H91.7778V13.3334H89.1109V10.6667Z" fill="#58BED3"/>
<path d="M96.2226 10.6667H98.8888V13.3334H96.2226V10.6667Z" fill="#58BED3"/>
<path d="M96.2226 7.1111H98.8888V9.77776H96.2226V7.1111Z" fill="#58BED3"/>
<path d="M99.7777 10.6667H102.445V13.3334H99.7777V10.6667Z" fill="#58BED3"/>
<path d="M99.7777 7.1111H102.445V9.77776H99.7777V7.1111Z" fill="#58BED3"/>
<path d="M78.4446 14.2223H81.1112V16.8889H78.4446V14.2223Z" fill="#CF6720"/>
<path d="M78.4446 17.7778H81.1112V20.4445H78.4446V17.7778Z" fill="#CF6720"/>
<path d="M82.0001 14.2223H84.6669V16.8889H82.0001V14.2223Z" fill="#CF6720"/>
<path d="M82.0001 17.7778H84.6669V20.4445H82.0001V17.7778Z" fill="#CF6720"/>
<path d="M89.1109 14.2223H91.7778V16.8889H89.1109V14.2223Z" fill="#CF6720"/>
<path d="M92.6667 14.2223H95.3336V16.8889H92.6667V14.2223Z" fill="#CF6720"/>
<path d="M92.6667 17.7778H95.3336V20.4445H92.6667V17.7778Z" fill="#CF6720"/>
<path d="M96.2226 14.2223H98.8888V16.8889H96.2226V14.2223Z" fill="#CF6720"/>
<path d="M96.2226 17.7778H98.8888V20.4445H96.2226V17.7778Z" fill="#CF6720"/>
<path d="M99.7777 14.2223H102.445V16.8889H99.7777V14.2223Z" fill="#CF6720"/>
<path d="M99.7777 17.7778H102.445V20.4445H99.7777V17.7778Z" fill="#CF6720"/>
<path d="M78.4446 21.3334H81.1112V24H78.4446V21.3334Z" fill="#BC619F"/>
<path d="M78.4446 24.8889H81.1112V27.5556H78.4446V24.8889Z" fill="#BC619F"/>
<path d="M82.0001 21.3334H84.6669V24H82.0001V21.3334Z" fill="#BC619F"/>
<path d="M82.0001 24.8889H84.6669V27.5556H82.0001V24.8889Z" fill="#BC619F"/>
<path d="M96.2226 21.3334H98.8888V24H96.2226V21.3334Z" fill="#BC619F"/>
<path d="M99.7777 21.3334H102.445V24H99.7777V21.3334Z" fill="#BC619F"/>
<path d="M99.7777 24.8889H102.445V27.5556H99.7777V24.8889Z" fill="#BC619F"/>
<path d="M112.58 27.5556V1.46378H106.889V0H114.295V27.5556H112.58Z" fill="#5E2659"/>
<path d="M131.319 27.3361L129.751 27.5556C129.385 26.4943 129.131 25.36 129.021 24.2621C127.671 26.2016 126.248 27.5556 123.731 27.5556C120.192 27.5556 118.368 24.6647 118.368 21.4078C118.368 17.7117 120.447 14.528 124.168 14.528C125.737 14.528 127.525 15.1501 128.875 15.8088C128.984 10.9051 128.109 8.85584 124.935 8.85584C123.256 8.85584 121.834 9.44138 120.301 10.1366L119.9 8.56306C121.578 7.90441 123.22 7.39211 125.044 7.39211C128.583 7.39211 130.699 9.88051 130.589 14.1987L130.371 22.103C130.335 23.9693 130.809 25.7259 131.319 27.3361ZM128.765 22.1762V17.1628C127.561 16.5406 126.102 15.9918 124.569 15.9918C121.359 15.9918 120.082 18.6998 120.082 21.5541C120.082 23.7132 121.286 26.0918 123.731 26.0918C126.139 26.0918 127.598 24.1523 128.765 22.1762Z" fill="#5E2659"/>
<path d="M134.953 0H136.668V9.03884C137.982 7.97758 139.696 7.3921 141.411 7.3921C144.075 7.3921 149 9.58774 149 17.3457C149 24.8842 144.732 27.5556 141.521 27.5556C139.259 27.5556 137.398 26.3846 136.377 24.3719L135.683 27.5556L134.078 27.3361C134.771 25.0672 134.953 22.7251 134.953 20.3465V0ZM136.668 10.7588V22.2128C137.617 24.2987 138.931 26.0918 141.484 26.0918C143.674 26.0918 147.286 24.1889 147.286 17.4556C147.286 10.3562 143.163 8.85584 140.973 8.85584C139.332 8.85584 137.872 9.6975 136.668 10.7588Z" fill="#5E2659"/>
<path d="M7.26 37.7063H1.54V33.5263H7.26V28.7413C7.26 26.798 7.7 25.368 8.58 24.4513C9.46 23.5346 10.9633 23.0763 13.09 23.0763H18.92V27.0913H12.265V33.5263H19.47V37.7063H12.21V61.7413H7.26V37.7063ZM35.2821 62.7313C32.3487 62.7313 29.8371 62.108 27.7471 60.8613C25.6571 59.578 24.0621 57.7996 22.9621 55.5263C21.8987 53.253 21.3671 50.613 21.3671 47.6063C21.3671 43.0963 22.5771 39.4846 24.9971 36.7713C27.4537 34.058 30.8821 32.7013 35.2821 32.7013C39.6454 32.7013 43.0371 34.058 45.4571 36.7713C47.8771 39.4846 49.0871 43.1146 49.0871 47.6613C49.0871 52.208 47.8771 55.8563 45.4571 58.6063C43.0371 61.3563 39.6454 62.7313 35.2821 62.7313ZM35.3371 58.4963C38.0504 58.4963 40.1954 57.5613 41.7721 55.6913C43.3854 53.7846 44.1921 51.108 44.1921 47.6613C44.1921 44.178 43.3854 41.538 41.7721 39.7413C40.1954 37.908 38.0321 36.9913 35.2821 36.9913C32.4954 36.9913 30.2954 37.9263 28.6821 39.7963C27.0687 41.6296 26.2621 44.2513 26.2621 47.6613C26.2621 51.0713 27.0871 53.7296 28.7371 55.6363C30.3871 57.543 32.5871 58.4963 35.3371 58.4963ZM54.2665 33.5263H59.1065V38.3113H59.5465C59.5465 36.808 60.1515 35.6346 61.3615 34.7913C62.6082 33.948 64.1115 33.5263 65.8715 33.5263H69.1165V38.1463H66.0365C61.4532 38.1463 59.1615 40.933 59.1615 46.5063V61.7413H54.2665V33.5263ZM73.7099 33.5263H78.6599V38.7513H78.7699C79.5765 36.6613 80.6765 35.1213 82.0699 34.1313C83.4999 33.1413 85.2782 32.6463 87.4049 32.6463C89.3116 32.6463 91.0532 33.2146 92.6299 34.3513C94.2432 35.4513 95.3432 36.918 95.9299 38.7513H96.0949C96.9016 36.6246 98.0382 35.0846 99.5049 34.1313C101.008 33.1413 102.823 32.6463 104.95 32.6463C106.673 32.6463 108.232 33.068 109.625 33.9113C111.018 34.718 112.118 35.9096 112.925 37.4863C113.768 39.063 114.19 40.9513 114.19 43.1513V61.6863H109.13V44.1963C109.13 41.8863 108.562 40.1263 107.425 38.9163C106.325 37.7063 104.895 37.1013 103.135 37.1013C101.155 37.1013 99.6332 37.8896 98.5699 39.4663C97.5066 41.0063 96.9382 42.8946 96.8649 45.1313V61.6863H91.8599V44.5263C91.8599 42.143 91.2916 40.3096 90.1549 39.0263C89.0182 37.743 87.5699 37.1013 85.8099 37.1013C83.6466 37.1013 81.9599 37.9813 80.7499 39.7413C79.5399 41.4646 78.8799 43.683 78.7699 46.3963V61.7413H73.7099V33.5263ZM128.961 62.7313C127.091 62.7313 125.422 62.3646 123.956 61.6313C122.489 60.8613 121.334 59.8163 120.491 58.4963C119.647 57.1396 119.226 55.6363 119.226 53.9863C119.226 51.603 119.776 49.8063 120.876 48.5963C121.976 47.3863 123.277 46.5796 124.781 46.1763C126.321 45.773 128.337 45.443 130.831 45.1863C132.701 45.003 134.167 44.8013 135.231 44.5813C136.294 44.3246 137.174 43.8846 137.871 43.2613C138.604 42.638 138.971 41.7213 138.971 40.5113C138.971 39.1913 138.384 38.238 137.211 37.6513C136.037 37.028 134.662 36.7163 133.086 36.7163C131.399 36.7163 129.786 37.1746 128.246 38.0913C126.706 38.9713 125.697 40.4746 125.221 42.6013H120.106C120.692 38.9713 122.269 36.423 124.836 34.9563C127.402 33.4896 130.152 32.7563 133.086 32.7563C136.019 32.7563 138.531 33.3796 140.621 34.6263C142.711 35.8363 143.756 37.8346 143.756 40.6213V61.6863H139.026V56.5713H138.861C137.834 58.808 136.514 60.403 134.901 61.3563C133.287 62.273 131.307 62.7313 128.961 62.7313ZM129.841 58.8263C131.381 58.8263 132.847 58.4596 134.241 57.7263C135.634 56.993 136.771 55.8746 137.651 54.3713C138.531 52.8313 138.971 50.943 138.971 48.7063V46.3413H138.806C138.036 47.1846 137.046 47.7896 135.836 48.1563C134.662 48.4863 133.159 48.7613 131.326 48.9813C129.712 49.1646 128.429 49.3846 127.476 49.6413C126.559 49.898 125.789 50.3563 125.166 51.0163C124.542 51.6763 124.231 52.648 124.231 53.9313C124.231 55.3613 124.744 56.5346 125.771 57.4513C126.797 58.368 128.154 58.8263 129.841 58.8263ZM159.481 61.7413C157.317 61.7413 155.759 61.3746 154.806 60.6413C153.852 59.908 153.376 58.4596 153.376 56.2963V37.9263H147.491V33.5263H153.431V24.8913H158.436V33.5263H165.091V37.9263H158.381V57.0113H164.706V61.7413H159.481ZM170.228 22.9663H176.388V30.0613H170.228V22.9663ZM170.888 33.4713H175.783V61.7413H170.888V33.4713ZM194.911 62.7313C191.978 62.7313 189.466 62.108 187.376 60.8613C185.286 59.578 183.691 57.7996 182.591 55.5263C181.528 53.253 180.996 50.613 180.996 47.6063C180.996 43.0963 182.206 39.4846 184.626 36.7713C187.083 34.058 190.511 32.7013 194.911 32.7013C199.274 32.7013 202.666 34.058 205.086 36.7713C207.506 39.4846 208.716 43.1146 208.716 47.6613C208.716 52.208 207.506 55.8563 205.086 58.6063C202.666 61.3563 199.274 62.7313 194.911 62.7313ZM194.966 58.4963C197.679 58.4963 199.824 57.5613 201.401 55.6913C203.014 53.7846 203.821 51.108 203.821 47.6613C203.821 44.178 203.014 41.538 201.401 39.7413C199.824 37.908 197.661 36.9913 194.911 36.9913C192.124 36.9913 189.924 37.9263 188.311 39.7963C186.698 41.6296 185.891 44.2513 185.891 47.6613C185.891 51.0713 186.716 53.7296 188.366 55.6363C190.016 57.543 192.216 58.4963 194.966 58.4963ZM213.895 33.4713H218.79V39.0263H218.9C219.67 36.9363 220.862 35.3596 222.475 34.2963C224.125 33.1963 226.032 32.6463 228.195 32.6463C231.165 32.6463 233.585 33.5996 235.455 35.5063C237.325 37.413 238.26 40.0713 238.26 43.4813V61.6863H233.2V44.5813C233.2 42.198 232.577 40.3646 231.33 39.0813C230.12 37.7613 228.58 37.1013 226.71 37.1013C225.06 37.1013 223.649 37.5963 222.475 38.5863C221.302 39.5396 220.422 40.7863 219.835 42.3263C219.249 43.8663 218.955 45.443 218.955 47.0563V61.6863H213.895V33.4713ZM255.946 62.4563C252.719 62.4563 249.877 61.6863 247.421 60.1463C244.964 58.6063 243.497 55.783 243.021 51.6763H247.696C248.172 54.3163 249.199 56.113 250.776 57.0663C252.352 58.0196 254.094 58.4963 256.001 58.4963C258.017 58.4963 259.649 58.093 260.896 57.2863C262.142 56.4796 262.766 55.3796 262.766 53.9863C262.766 53.033 262.362 52.1713 261.556 51.4013C260.786 50.6313 259.301 50.008 257.101 49.5313L253.141 48.7613C250.537 48.248 248.337 47.3863 246.541 46.1763C244.781 44.9296 243.901 43.1696 243.901 40.8963C243.901 39.063 244.432 37.5413 245.496 36.3313C246.596 35.0846 247.971 34.1863 249.621 33.6363C251.307 33.0496 253.067 32.7563 254.901 32.7563C258.054 32.7563 260.786 33.508 263.096 35.0113C265.442 36.478 266.872 39.0263 267.386 42.6563H262.546C262.032 40.5663 261.152 39.0263 259.906 38.0363C258.659 37.0463 256.972 36.5513 254.846 36.5513C253.196 36.5513 251.784 36.918 250.611 37.6513C249.437 38.3846 248.851 39.448 248.851 40.8413C248.851 42.7113 250.666 44.0313 254.296 44.8013L259.356 45.8463C262.106 46.3963 264.159 47.313 265.516 48.5963C266.909 49.8796 267.606 51.6213 267.606 53.8213C267.569 56.6813 266.469 58.8446 264.306 60.3113C262.142 61.7413 259.356 62.4563 255.946 62.4563Z" fill="#5E2659"/>
</svg>
